<?xml version="1.0" standalone="no"?>
<!DOCTYPE svg PUBLIC "-//W3C//DTD SVG 20010904//EN"
 "http://www.w3.org/TR/2001/REC-SVG-20010904/DTD/svg10.dtd">
<svg version="1.0" xmlns="http://www.w3.org/2000/svg"
 width="518.000000pt" height="530.000000pt" viewBox="0 0 518.000000 530.000000"
 preserveAspectRatio="xMidYMid meet">
<metadata>
Created by potrace 1.16, written by Peter Selinger 2001-2019
</metadata>
<g transform="translate(0.000000,530.000000) scale(0.100000,-0.100000)"
fill="#000000" stroke="none">
<path d="M2550 5283 c-24 -4 -152 -130 -327 -320 -83 -92 -99 -134 -70 -189 9
-16 98 -114 199 -217 183 -187 183 -188 227 -187 35 0 49 6 77 34 30 30 34 40
34 85 0 28 4 51 10 51 37 0 211 -68 281 -110 194 -117 326 -297 386 -529 22
-86 24 -110 19 -221 -8 -184 -44 -299 -142 -447 -31 -46 -89 -114 -134 -156
-83 -77 -97 -107 -61 -127 22 -11 419 -14 437 -2 7 4 22 29 34 55 42 88 146
130 230 92 21 -10 46 -15 55 -11 9 3 29 35 46 71 128 282 144 680 39 995 -34
104 -123 278 -190 371 -75 107 -270 298 -366 361 -158 103 -354 185 -511 213
-145 26 -133 19 -133 73 0 41 -5 52 -32 79 -35 32 -66 43 -108 36z"/>
<path d="M2045 5037 c-91 -34 -248 -120 -336 -183 -101 -73 -270 -247 -338
-348 -69 -102 -164 -300 -191 -396 -81 -295 -76 -560 16 -853 28 -89 104 -251
136 -292 l19 -25 345 0 344 0 12 26 c11 24 7 29 -78 112 -190 183 -277 379
-277 622 1 343 172 613 489 773 61 31 84 51 84 74 0 2 -35 41 -79 87 -93 97
-111 129 -111 196 0 58 9 79 57 133 24 27 33 46 31 65 -4 36 -43 39 -123 9z"/>
<path d="M2454 4300 c-25 -10 -54 -48 -54 -70 0 -10 -20 -24 -48 -37 -42 -17
-52 -18 -67 -6 -11 7 -34 13 -54 13 -29 0 -44 -10 -98 -63 -53 -54 -63 -69
-63 -98 0 -20 6 -43 13 -54 12 -15 11 -25 -6 -67 -13 -30 -27 -48 -38 -48 -9
0 -28 -9 -43 -21 -25 -20 -26 -25 -26 -118 0 -89 2 -99 23 -119 13 -12 32 -22
43 -22 14 0 26 -14 41 -49 17 -42 18 -52 7 -72 -28 -50 -18 -78 49 -146 57
-56 68 -63 103 -63 22 0 45 5 51 11 17 17 113 -21 113 -44 0 -10 13 -32 29
-48 27 -27 35 -29 106 -29 92 0 129 16 146 64 15 42 84 75 118 57 11 -6 36
-11 57 -11 32 0 45 8 96 58 52 53 58 63 58 101 0 22 -5 49 -11 59 -15 25 25
112 52 112 11 0 31 11 44 25 22 22 25 32 25 105 0 97 -17 138 -61 147 -23 4
-34 15 -50 52 -15 35 -18 50 -10 63 6 10 11 36 11 59 0 36 -6 47 -59 100 -51
50 -65 59 -96 59 -20 0 -45 -5 -56 -11 -15 -8 -31 -6 -64 7 -35 13 -47 23 -56
51 -8 25 -21 39 -45 49 -37 15 -146 18 -180 4z m188 -381 c65 -33 118 -118
118 -190 0 -93 -78 -188 -172 -209 -134 -30 -258 70 -258 210 0 163 165 263
312 189z"/>
<path d="M3655 3043 c-11 -3 -35 -19 -52 -36 -28 -26 -33 -38 -33 -79 l0 -48
-1213 0 c-764 0 -1225 -4 -1246 -10 -38 -11 -95 -60 -117 -102 -10 -19 -14
-65 -14 -163 0 -147 6 -169 57 -216 61 -57 -22 -54 1306 -57 l1227 -2 0 -46
c0 -39 5 -51 34 -80 29 -29 41 -34 82 -34 l48 0 114 118 c62 64 145 152 183
195 63 70 69 81 69 120 0 24 -8 54 -17 67 -39 58 -331 354 -360 366 -34 15
-35 15 -68 7z"/>
<path d="M175 1035 c-54 -53 -15 -135 65 -135 80 0 119 82 65 135 -18 19 -35
25 -65 25 -30 0 -47 -6 -65 -25z"/>
<path d="M4000 930 c0 -71 -3 -130 -7 -130 -5 1 -19 7 -33 15 -38 22 -143 19
-189 -5 -92 -47 -136 -146 -129 -289 6 -102 33 -168 86 -209 32 -24 44 -27
117 -27 72 0 86 3 122 27 l41 27 6 -24 c6 -23 11 -25 66 -25 l60 0 0 385 0
385 -70 0 -70 0 0 -130z m-30 -230 c24 -16 25 -22 28 -135 3 -131 1 -138 -64
-166 -75 -34 -130 4 -145 101 -9 59 3 142 27 178 33 50 101 60 154 22z"/>
<path d="M4800 675 l0 -385 70 0 70 0 0 385 0 385 -70 0 -70 0 0 -385z"/>
<path d="M497 983 c-3 -5 -11 -43 -18 -85 -11 -68 -16 -78 -33 -78 -54 0 -67
-11 -64 -49 3 -34 5 -36 41 -39 l37 -3 0 -175 c0 -190 5 -213 56 -253 36 -28
141 -29 202 -1 46 21 46 21 9 73 -17 26 -23 28 -59 22 -65 -11 -68 -4 -68 176
l0 159 70 0 70 0 0 45 0 45 -70 0 -70 0 0 85 0 85 -49 0 c-28 0 -52 -3 -54 -7z"/>
<path d="M911 804 c-97 -49 -136 -131 -129 -269 5 -90 26 -140 80 -192 50 -48
95 -63 190 -63 89 0 163 25 201 68 18 20 18 21 -4 51 -27 37 -53 39 -110 9
-50 -26 -117 -28 -154 -4 -27 18 -64 86 -65 119 0 16 15 17 174 17 200 0 188
-7 174 99 -9 72 -51 138 -107 168 -65 34 -177 33 -250 -3z m197 -98 c12 -12
26 -36 31 -54 l10 -32 -115 0 c-115 0 -115 0 -108 23 27 87 122 120 182 63z"/>
<path d="M1521 794 l-40 -35 -3 28 c-3 27 -5 28 -65 31 l-63 3 0 -266 0 -265
75 0 75 0 0 165 c0 219 14 247 125 249 l50 1 7 55 c8 65 3 70 -69 70 -47 0
-58 -4 -92 -36z"/>
<path d="M2386 805 c-44 -30 -42 -30 -49 -5 -4 17 -14 20 -61 20 l-56 0 0
-265 0 -265 70 0 70 0 2 196 3 197 27 20 c35 26 87 25 110 -4 16 -19 18 -45
18 -215 l0 -194 75 0 75 0 0 189 c0 185 1 191 23 217 33 37 81 37 114 0 22
-26 23 -32 23 -217 l0 -189 70 0 70 0 0 203 c0 190 -1 205 -22 247 -13 25 -38
55 -57 67 -68 45 -221 24 -264 -37 -13 -19 -14 -19 -28 6 -31 59 -146 74 -213
29z"/>
<path d="M3183 805 c-91 -46 -133 -126 -133 -255 0 -102 38 -183 107 -229 56
-37 90 -44 186 -39 93 4 157 40 201 112 26 41 30 60 34 134 5 103 -7 154 -49
211 -45 62 -112 91 -215 91 -66 0 -89 -4 -131 -25z m209 -112 c50 -47 61 -185
21 -254 -46 -77 -156 -69 -200 14 -25 47 -24 162 3 207 40 70 120 85 176 33z"/>
<path d="M4370 814 c-45 -20 -96 -69 -123 -119 -32 -59 -31 -210 2 -278 28
-57 86 -109 140 -125 53 -16 170 -15 219 2 45 16 102 54 102 69 0 20 -43 67
-61 67 -11 0 -38 -9 -61 -21 -50 -25 -112 -28 -154 -6 -31 16 -56 55 -69 109
l-7 28 178 2 179 3 3 38 c4 52 -23 139 -55 178 -41 48 -95 69 -183 68 -45 0
-89 -6 -110 -15z m173 -96 c17 -9 47 -64 47 -88 0 -6 -41 -10 -110 -10 -99 0
-110 2 -110 18 0 21 27 63 49 77 38 24 81 25 124 3z"/>
<path d="M170 555 l0 -265 70 0 70 0 0 265 0 265 -70 0 -70 0 0 -265z"/>
<path d="M1710 180 l0 -40 210 0 210 0 0 40 0 40 -210 0 -210 0 0 -40z"/>
</g>
</svg>
